<mxfile host="app.diagrams.net" modified="2021-10-01T00:08:50.108Z" agent="5.0 (Windows NT 10.0; Win64; x64) AppleWebKit/537.36 (KHTML, like Gecko) Chrome/93.0.4577.82 Safari/537.36 OPR/79.0.4143.50 (Edition utorrent)" etag="PF929M2unGGAhBGZGyVi" version="15.4.0" type="github">
  <diagram id="R2lEEEUBdFMjLlhIrx00" name="Page-1">
    <mxGraphModel dx="868" dy="483" grid="1" gridSize="10" guides="1" tooltips="1" connect="1" arrows="1" fold="1" page="1" pageScale="1" pageWidth="850" pageHeight="1100" math="0" shadow="0" extFonts="Permanent Marker^https://fonts.googleapis.com/css?family=Permanent+Marker">
      <root>
        <mxCell id="0" />
        <mxCell id="1" parent="0" />
        <mxCell id="uLbKW4DAnLPxpBr8rwX6-97" value="1" style="edgeStyle=orthogonalEdgeStyle;rounded=0;orthogonalLoop=1;jettySize=auto;html=1;exitX=1;exitY=0.5;exitDx=0;exitDy=0;entryX=0;entryY=0.5;entryDx=0;entryDy=0;fontSize=10;endArrow=none;endFill=0;" edge="1" parent="1" source="uLbKW4DAnLPxpBr8rwX6-1" target="uLbKW4DAnLPxpBr8rwX6-4">
          <mxGeometry x="-0.6721" y="10" relative="1" as="geometry">
            <mxPoint as="offset" />
          </mxGeometry>
        </mxCell>
        <mxCell id="uLbKW4DAnLPxpBr8rwX6-1" value="Empresa Produtos Farmacêuticos&amp;nbsp;" style="whiteSpace=wrap;html=1;align=center;fontSize=11;" vertex="1" parent="1">
          <mxGeometry x="155" y="140" width="100" height="40" as="geometry" />
        </mxCell>
        <mxCell id="uLbKW4DAnLPxpBr8rwX6-2" value="Clientes" style="whiteSpace=wrap;html=1;align=center;" vertex="1" parent="1">
          <mxGeometry x="412.5" y="140" width="100" height="40" as="geometry" />
        </mxCell>
        <mxCell id="uLbKW4DAnLPxpBr8rwX6-101" style="edgeStyle=orthogonalEdgeStyle;rounded=0;orthogonalLoop=1;jettySize=auto;html=1;entryX=0.5;entryY=1;entryDx=0;entryDy=0;fontSize=11;endArrow=none;endFill=0;" edge="1" parent="1" source="uLbKW4DAnLPxpBr8rwX6-3" target="uLbKW4DAnLPxpBr8rwX6-40">
          <mxGeometry relative="1" as="geometry" />
        </mxCell>
        <mxCell id="uLbKW4DAnLPxpBr8rwX6-3" value="Solicitação Pedido" style="whiteSpace=wrap;html=1;align=center;" vertex="1" parent="1">
          <mxGeometry x="410" y="321.5" width="100" height="40" as="geometry" />
        </mxCell>
        <mxCell id="uLbKW4DAnLPxpBr8rwX6-98" value="N" style="edgeStyle=orthogonalEdgeStyle;rounded=0;orthogonalLoop=1;jettySize=auto;html=1;fontSize=10;endArrow=none;endFill=0;" edge="1" parent="1" source="uLbKW4DAnLPxpBr8rwX6-4" target="uLbKW4DAnLPxpBr8rwX6-2">
          <mxGeometry x="0.4186" y="10" relative="1" as="geometry">
            <mxPoint as="offset" />
          </mxGeometry>
        </mxCell>
        <mxCell id="uLbKW4DAnLPxpBr8rwX6-4" value="&lt;div style=&quot;text-align: justify&quot;&gt;&lt;span style=&quot;font-size: 10px&quot;&gt;Pedidos&lt;/span&gt;&lt;/div&gt;" style="shape=rhombus;perimeter=rhombusPerimeter;whiteSpace=wrap;html=1;align=center;" vertex="1" parent="1">
          <mxGeometry x="285.5" y="135" width="90" height="50" as="geometry" />
        </mxCell>
        <mxCell id="uLbKW4DAnLPxpBr8rwX6-5" value="&lt;font style=&quot;font-size: 8px&quot;&gt;Nome&lt;/font&gt;" style="ellipse;whiteSpace=wrap;html=1;align=left;spacingLeft=25;" vertex="1" parent="1">
          <mxGeometry x="387.5" y="21" width="25" height="17" as="geometry" />
        </mxCell>
        <mxCell id="uLbKW4DAnLPxpBr8rwX6-7" value="&lt;font style=&quot;font-size: 8px&quot;&gt;CNPJ&lt;/font&gt;" style="ellipse;whiteSpace=wrap;html=1;align=left;spacingLeft=25;" vertex="1" parent="1">
          <mxGeometry x="413" y="38" width="25" height="17" as="geometry" />
        </mxCell>
        <mxCell id="uLbKW4DAnLPxpBr8rwX6-8" value="&lt;font style=&quot;font-size: 8px&quot;&gt;Endereço&lt;/font&gt;" style="ellipse;whiteSpace=wrap;html=1;align=left;spacingLeft=25;" vertex="1" parent="1">
          <mxGeometry x="450" y="55" width="25" height="17" as="geometry" />
        </mxCell>
        <mxCell id="uLbKW4DAnLPxpBr8rwX6-9" value="&lt;font style=&quot;font-size: 8px&quot;&gt;Cidade&lt;/font&gt;" style="ellipse;whiteSpace=wrap;html=1;align=left;spacingLeft=25;" vertex="1" parent="1">
          <mxGeometry x="480" y="70" width="25" height="17" as="geometry" />
        </mxCell>
        <mxCell id="uLbKW4DAnLPxpBr8rwX6-10" value="&lt;font style=&quot;font-size: 8px&quot;&gt;Estado&lt;/font&gt;" style="ellipse;whiteSpace=wrap;html=1;align=left;spacingLeft=25;" vertex="1" parent="1">
          <mxGeometry x="500" y="86" width="25" height="17" as="geometry" />
        </mxCell>
        <mxCell id="uLbKW4DAnLPxpBr8rwX6-11" value="&lt;font style=&quot;font-size: 8px&quot;&gt;CEP&lt;/font&gt;" style="ellipse;whiteSpace=wrap;html=1;align=left;spacingLeft=25;" vertex="1" parent="1">
          <mxGeometry x="520" y="103" width="25" height="17" as="geometry" />
        </mxCell>
        <mxCell id="uLbKW4DAnLPxpBr8rwX6-12" value="&lt;font style=&quot;font-size: 10px&quot;&gt;Telefone&lt;/font&gt;" style="ellipse;whiteSpace=wrap;html=1;align=left;spacingLeft=25;" vertex="1" parent="1">
          <mxGeometry x="545" y="123.5" width="25" height="17" as="geometry" />
        </mxCell>
        <mxCell id="uLbKW4DAnLPxpBr8rwX6-13" value="&lt;font style=&quot;font-size: 8px&quot;&gt;Pessoa Contato&lt;/font&gt;" style="ellipse;whiteSpace=wrap;html=1;align=left;spacingLeft=25;" vertex="1" parent="1">
          <mxGeometry x="550" y="150" width="25" height="17" as="geometry" />
        </mxCell>
        <mxCell id="uLbKW4DAnLPxpBr8rwX6-24" value="" style="endArrow=none;html=1;rounded=0;edgeStyle=orthogonalEdgeStyle;entryX=0.5;entryY=1;entryDx=0;entryDy=0;exitX=0;exitY=0;exitDx=0;exitDy=0;" edge="1" parent="1" source="uLbKW4DAnLPxpBr8rwX6-2" target="uLbKW4DAnLPxpBr8rwX6-5">
          <mxGeometry relative="1" as="geometry">
            <mxPoint x="230" y="38" as="sourcePoint" />
            <mxPoint x="390" y="38" as="targetPoint" />
            <Array as="points" />
          </mxGeometry>
        </mxCell>
        <mxCell id="uLbKW4DAnLPxpBr8rwX6-27" value="" style="endArrow=none;html=1;rounded=0;edgeStyle=orthogonalEdgeStyle;exitX=0.133;exitY=0.037;exitDx=0;exitDy=0;exitPerimeter=0;" edge="1" parent="1" source="uLbKW4DAnLPxpBr8rwX6-2">
          <mxGeometry relative="1" as="geometry">
            <mxPoint x="265" y="55" as="sourcePoint" />
            <mxPoint x="425" y="55" as="targetPoint" />
            <Array as="points">
              <mxPoint x="426" y="55" />
            </Array>
          </mxGeometry>
        </mxCell>
        <mxCell id="uLbKW4DAnLPxpBr8rwX6-31" value="&lt;span style=&quot;color: rgba(0 , 0 , 0 , 0) ; font-family: monospace ; font-size: 0px&quot;&gt;%3CmxGraphModel%3E%3Croot%3E%3CmxCell%20id%3D%220%22%2F%3E%3CmxCell%20id%3D%221%22%20parent%3D%220%22%2F%3E%3CmxCell%20id%3D%222%22%20value%3D%22%22%20style%3D%22endArrow%3Dnone%3Bhtml%3D1%3Brounded%3D0%3BedgeStyle%3DorthogonalEdgeStyle%3B%22%20edge%3D%221%22%20parent%3D%221%22%3E%3CmxGeometry%20relative%3D%221%22%20as%3D%22geometry%22%3E%3CmxPoint%20x%3D%22300%22%20y%3D%22230%22%20as%3D%22sourcePoint%22%2F%3E%3CmxPoint%20x%3D%22460%22%20y%3D%22230%22%20as%3D%22targetPoint%22%2F%3E%3CArray%20as%3D%22points%22%3E%3CmxPoint%20x%3D%22390%22%20y%3D%22230%22%2F%3E%3CmxPoint%20x%3D%22390%22%20y%3D%22230%22%2F%3E%3C%2FArray%3E%3C%2FmxGeometry%3E%3C%2FmxCell%3E%3C%2Froot%3E%3C%2FmxGraphModel%3&lt;/span&gt;" style="endArrow=none;html=1;rounded=0;edgeStyle=orthogonalEdgeStyle;exitX=0.5;exitY=0;exitDx=0;exitDy=0;" edge="1" parent="1" source="uLbKW4DAnLPxpBr8rwX6-2">
          <mxGeometry relative="1" as="geometry">
            <mxPoint x="300" y="72" as="sourcePoint" />
            <mxPoint x="460" y="72" as="targetPoint" />
            <Array as="points">
              <mxPoint x="463" y="72" />
            </Array>
          </mxGeometry>
        </mxCell>
        <mxCell id="uLbKW4DAnLPxpBr8rwX6-32" value="&lt;span style=&quot;color: rgba(0 , 0 , 0 , 0) ; font-family: monospace ; font-size: 0px&quot;&gt;%3CmxGraphModel%3E%3Croot%3E%3CmxCell%20id%3D%220%22%2F%3E%3CmxCell%20id%3D%221%22%20parent%3D%220%22%2F%3E%3CmxCell%20id%3D%222%22%20value%3D%22%22%20style%3D%22endArrow%3Dnone%3Bhtml%3D1%3Brounded%3D0%3BedgeStyle%3DorthogonalEdgeStyle%3B%22%20edge%3D%221%22%20parent%3D%221%22%3E%3CmxGeometry%20relative%3D%221%22%20as%3D%22geometry%22%3E%3CmxPoint%20x%3D%22300%22%20y%3D%22230%22%20as%3D%22sourcePoint%22%2F%3E%3CmxPoint%20x%3D%22460%22%20y%3D%22230%22%20as%3D%22targetPoint%22%2F%3E%3CArray%20as%3D%22points%22%3E%3CmxPoint%20x%3D%22390%22%20y%3D%22230%22%2F%3E%3CmxPoint%20x%3D%22390%22%20y%3D%22230%22%2F%3E%3C%2FArray%3E%3C%2FmxGeometry%3E%3C%2FmxCell%3E%3C%2Froot%3E%3C%2FmxGraphModel%3&lt;/span&gt;" style="endArrow=none;html=1;rounded=0;edgeStyle=orthogonalEdgeStyle;exitX=0.75;exitY=0;exitDx=0;exitDy=0;" edge="1" parent="1" source="uLbKW4DAnLPxpBr8rwX6-2">
          <mxGeometry relative="1" as="geometry">
            <mxPoint x="330" y="86" as="sourcePoint" />
            <mxPoint x="490" y="86" as="targetPoint" />
            <Array as="points">
              <mxPoint x="487" y="86" />
            </Array>
          </mxGeometry>
        </mxCell>
        <mxCell id="uLbKW4DAnLPxpBr8rwX6-33" value="&lt;span style=&quot;color: rgba(0 , 0 , 0 , 0) ; font-family: monospace ; font-size: 0px&quot;&gt;%3CmxGraphModel%3E%3Croot%3E%3CmxCell%20id%3D%220%22%2F%3E%3CmxCell%20id%3D%221%22%20parent%3D%220%22%2F%3E%3CmxCell%20id%3D%222%22%20value%3D%22%22%20style%3D%22endArrow%3Dnone%3Bhtml%3D1%3Brounded%3D0%3BedgeStyle%3DorthogonalEdgeStyle%3B%22%20edge%3D%221%22%20parent%3D%221%22%3E%3CmxGeometry%20relative%3D%221%22%20as%3D%22geometry%22%3E%3CmxPoint%20x%3D%22300%22%20y%3D%22230%22%20as%3D%22sourcePoint%22%2F%3E%3CmxPoint%20x%3D%22460%22%20y%3D%22230%22%20as%3D%22targetPoint%22%2F%3E%3CArray%20as%3D%22points%22%3E%3CmxPoint%20x%3D%22390%22%20y%3D%22230%22%2F%3E%3CmxPoint%20x%3D%22390%22%20y%3D%22230%22%2F%3E%3C%2FArray%3E%3C%2FmxGeometry%3E%3C%2FmxCell%3E%3C%2Froot%3E%3C%2FmxGraphModel%3&lt;/span&gt;" style="endArrow=none;html=1;rounded=0;edgeStyle=orthogonalEdgeStyle;exitX=0.871;exitY=-0.015;exitDx=0;exitDy=0;exitPerimeter=0;" edge="1" parent="1" source="uLbKW4DAnLPxpBr8rwX6-2">
          <mxGeometry relative="1" as="geometry">
            <mxPoint x="352.5" y="102.31" as="sourcePoint" />
            <mxPoint x="512.5" y="102.31" as="targetPoint" />
            <Array as="points">
              <mxPoint x="500" y="102" />
            </Array>
          </mxGeometry>
        </mxCell>
        <mxCell id="uLbKW4DAnLPxpBr8rwX6-34" value="&lt;span style=&quot;color: rgba(0 , 0 , 0 , 0) ; font-family: monospace ; font-size: 0px&quot;&gt;%3CmxGraphModel%3E%3Croot%3E%3CmxCell%20id%3D%220%22%2F%3E%3CmxCell%20id%3D%221%22%20parent%3D%220%22%2F%3E%3CmxCell%20id%3D%222%22%20value%3D%22%22%20style%3D%22endArrow%3Dnone%3Bhtml%3D1%3Brounded%3D0%3BedgeStyle%3DorthogonalEdgeStyle%3B%22%20edge%3D%221%22%20parent%3D%221%22%3E%3CmxGeometry%20relative%3D%221%22%20as%3D%22geometry%22%3E%3CmxPoint%20x%3D%22300%22%20y%3D%22230%22%20as%3D%22sourcePoint%22%2F%3E%3CmxPoint%20x%3D%22460%22%20y%3D%22230%22%20as%3D%22targetPoint%22%2F%3E%3CArray%20as%3D%22points%22%3E%3CmxPoint%20x%3D%22390%22%20y%3D%22230%22%2F%3E%3CmxPoint%20x%3D%22390%22%20y%3D%22230%22%2F%3E%3C%2FArray%3E%3C%2FmxGeometry%3E%3C%2FmxCell%3E%3C%2Froot%3E%3C%2FmxGraphModel%3&lt;/span&gt;" style="endArrow=none;html=1;rounded=0;edgeStyle=orthogonalEdgeStyle;exitX=1;exitY=0;exitDx=0;exitDy=0;" edge="1" parent="1" source="uLbKW4DAnLPxpBr8rwX6-2">
          <mxGeometry relative="1" as="geometry">
            <mxPoint x="370" y="120" as="sourcePoint" />
            <mxPoint x="530" y="120" as="targetPoint" />
            <Array as="points">
              <mxPoint x="513" y="120" />
            </Array>
          </mxGeometry>
        </mxCell>
        <mxCell id="uLbKW4DAnLPxpBr8rwX6-35" value="&lt;span style=&quot;color: rgba(0 , 0 , 0 , 0) ; font-family: monospace ; font-size: 0px&quot;&gt;%3CmxGraphModel%3E%3Croot%3E%3CmxCell%20id%3D%220%22%2F%3E%3CmxCell%20id%3D%221%22%20parent%3D%220%22%2F%3E%3CmxCell%20id%3D%222%22%20value%3D%22%22%20style%3D%22endArrow%3Dnone%3Bhtml%3D1%3Brounded%3D0%3BedgeStyle%3DorthogonalEdgeStyle%3B%22%20edge%3D%221%22%20parent%3D%221%22%3E%3CmxGeometry%20relative%3D%221%22%20as%3D%22geometry%22%3E%3CmxPoint%20x%3D%22300%22%20y%3D%22230%22%20as%3D%22sourcePoint%22%2F%3E%3CmxPoint%20x%3D%22460%22%20y%3D%22230%22%20as%3D%22targetPoint%22%2F%3E%3CArray%20as%3D%22points%22%3E%3CmxPoint%20x%3D%22390%22%20y%3D%22230%22%2F%3E%3CmxPoint%20x%3D%22390%22%20y%3D%22230%22%2F%3E%3C%2FArray%3E%3C%2FmxGeometry%3E%3C%2FmxCell%3E%3C%2Froot%3E%3C%2FmxGraphModel%3&lt;/span&gt;" style="endArrow=none;html=1;rounded=0;edgeStyle=orthogonalEdgeStyle;exitX=1;exitY=0.5;exitDx=0;exitDy=0;" edge="1" parent="1" source="uLbKW4DAnLPxpBr8rwX6-2">
          <mxGeometry relative="1" as="geometry">
            <mxPoint x="400" y="140.5" as="sourcePoint" />
            <mxPoint x="560" y="140.5" as="targetPoint" />
            <Array as="points">
              <mxPoint x="513" y="140" />
              <mxPoint x="470" y="140" />
            </Array>
          </mxGeometry>
        </mxCell>
        <mxCell id="uLbKW4DAnLPxpBr8rwX6-100" style="edgeStyle=orthogonalEdgeStyle;rounded=0;orthogonalLoop=1;jettySize=auto;html=1;exitX=0.5;exitY=0;exitDx=0;exitDy=0;entryX=0.5;entryY=1;entryDx=0;entryDy=0;fontSize=11;endArrow=none;endFill=0;" edge="1" parent="1" source="uLbKW4DAnLPxpBr8rwX6-40" target="uLbKW4DAnLPxpBr8rwX6-2">
          <mxGeometry relative="1" as="geometry" />
        </mxCell>
        <mxCell id="uLbKW4DAnLPxpBr8rwX6-40" value="Informado" style="shape=rhombus;perimeter=rhombusPerimeter;whiteSpace=wrap;html=1;align=center;" vertex="1" parent="1">
          <mxGeometry x="417.5" y="213.5" width="90" height="50" as="geometry" />
        </mxCell>
        <mxCell id="uLbKW4DAnLPxpBr8rwX6-41" value="&lt;font style=&quot;font-size: 8px&quot;&gt;Nome Cliente&lt;/font&gt;" style="ellipse;whiteSpace=wrap;html=1;align=left;spacingLeft=25;" vertex="1" parent="1">
          <mxGeometry x="560" y="313" width="25" height="17" as="geometry" />
        </mxCell>
        <mxCell id="uLbKW4DAnLPxpBr8rwX6-42" value="&lt;font style=&quot;font-size: 8px&quot;&gt;Data Pedido&lt;/font&gt;" style="ellipse;whiteSpace=wrap;html=1;align=left;spacingLeft=25;" vertex="1" parent="1">
          <mxGeometry x="530" y="287.5" width="25" height="17" as="geometry" />
        </mxCell>
        <mxCell id="uLbKW4DAnLPxpBr8rwX6-43" value="&lt;span style=&quot;font-size: 8px&quot;&gt;Nome Medicamento&lt;br&gt;&lt;/span&gt;" style="ellipse;whiteSpace=wrap;html=1;align=left;spacingLeft=25;" vertex="1" parent="1">
          <mxGeometry x="560" y="340" width="25" height="17" as="geometry" />
        </mxCell>
        <mxCell id="uLbKW4DAnLPxpBr8rwX6-45" value="&lt;font style=&quot;font-size: 8px&quot;&gt;Quantidade&lt;/font&gt;" style="ellipse;whiteSpace=wrap;html=1;align=left;spacingLeft=25;" vertex="1" parent="1">
          <mxGeometry x="560" y="370" width="25" height="17" as="geometry" />
        </mxCell>
        <mxCell id="uLbKW4DAnLPxpBr8rwX6-46" value="&lt;span style=&quot;font-size: 8px&quot;&gt;Preço&lt;br&gt;&lt;/span&gt;" style="ellipse;whiteSpace=wrap;html=1;align=left;spacingLeft=25;" vertex="1" parent="1">
          <mxGeometry x="555" y="390" width="25" height="17" as="geometry" />
        </mxCell>
        <mxCell id="uLbKW4DAnLPxpBr8rwX6-47" value="" style="endArrow=none;html=1;rounded=0;edgeStyle=orthogonalEdgeStyle;entryX=1;entryY=0;entryDx=0;entryDy=0;exitX=0;exitY=0.5;exitDx=0;exitDy=0;" edge="1" parent="1" source="uLbKW4DAnLPxpBr8rwX6-42" target="uLbKW4DAnLPxpBr8rwX6-3">
          <mxGeometry relative="1" as="geometry">
            <mxPoint x="430" y="296" as="sourcePoint" />
            <mxPoint x="520" y="296" as="targetPoint" />
            <Array as="points">
              <mxPoint x="520" y="296" />
              <mxPoint x="520" y="321" />
            </Array>
          </mxGeometry>
        </mxCell>
        <mxCell id="uLbKW4DAnLPxpBr8rwX6-48" value="" style="endArrow=none;html=1;rounded=0;edgeStyle=orthogonalEdgeStyle;entryX=0;entryY=0.5;entryDx=0;entryDy=0;exitX=1;exitY=0.25;exitDx=0;exitDy=0;" edge="1" parent="1" source="uLbKW4DAnLPxpBr8rwX6-3" target="uLbKW4DAnLPxpBr8rwX6-41">
          <mxGeometry relative="1" as="geometry">
            <mxPoint x="540" y="344" as="sourcePoint" />
            <mxPoint x="552.5" y="343.81" as="targetPoint" />
            <Array as="points">
              <mxPoint x="560" y="331" />
            </Array>
          </mxGeometry>
        </mxCell>
        <mxCell id="uLbKW4DAnLPxpBr8rwX6-49" value="" style="endArrow=none;html=1;rounded=0;edgeStyle=orthogonalEdgeStyle;entryX=0;entryY=0.5;entryDx=0;entryDy=0;exitX=0.993;exitY=0.626;exitDx=0;exitDy=0;exitPerimeter=0;" edge="1" parent="1" source="uLbKW4DAnLPxpBr8rwX6-3" target="uLbKW4DAnLPxpBr8rwX6-43">
          <mxGeometry relative="1" as="geometry">
            <mxPoint x="452.48" y="373" as="sourcePoint" />
            <mxPoint x="532.48" y="373" as="targetPoint" />
            <Array as="points">
              <mxPoint x="520" y="347" />
              <mxPoint x="560" y="347" />
            </Array>
          </mxGeometry>
        </mxCell>
        <mxCell id="uLbKW4DAnLPxpBr8rwX6-50" value="" style="endArrow=none;html=1;rounded=0;edgeStyle=orthogonalEdgeStyle;exitX=1;exitY=0.75;exitDx=0;exitDy=0;entryX=0;entryY=0.5;entryDx=0;entryDy=0;" edge="1" parent="1" source="uLbKW4DAnLPxpBr8rwX6-3" target="uLbKW4DAnLPxpBr8rwX6-45">
          <mxGeometry relative="1" as="geometry">
            <mxPoint x="493" y="381.36" as="sourcePoint" />
            <mxPoint x="555" y="381.36" as="targetPoint" />
            <Array as="points">
              <mxPoint x="540" y="352" />
              <mxPoint x="540" y="381" />
              <mxPoint x="560" y="381" />
            </Array>
          </mxGeometry>
        </mxCell>
        <mxCell id="uLbKW4DAnLPxpBr8rwX6-51" value="" style="endArrow=none;html=1;rounded=0;edgeStyle=orthogonalEdgeStyle;entryX=0;entryY=0.5;entryDx=0;entryDy=0;exitX=1;exitY=1;exitDx=0;exitDy=0;" edge="1" parent="1" source="uLbKW4DAnLPxpBr8rwX6-3" target="uLbKW4DAnLPxpBr8rwX6-46">
          <mxGeometry relative="1" as="geometry">
            <mxPoint x="470" y="398.36" as="sourcePoint" />
            <mxPoint x="550" y="398.36" as="targetPoint" />
            <Array as="points">
              <mxPoint x="530" y="362" />
              <mxPoint x="530" y="399" />
            </Array>
          </mxGeometry>
        </mxCell>
        <mxCell id="uLbKW4DAnLPxpBr8rwX6-53" value="Medicamentos" style="whiteSpace=wrap;html=1;align=center;" vertex="1" parent="1">
          <mxGeometry x="442.5" y="480" width="100" height="40" as="geometry" />
        </mxCell>
        <mxCell id="uLbKW4DAnLPxpBr8rwX6-85" style="edgeStyle=orthogonalEdgeStyle;rounded=0;orthogonalLoop=1;jettySize=auto;html=1;exitX=1;exitY=0;exitDx=0;exitDy=0;entryX=0.029;entryY=-0.021;entryDx=0;entryDy=0;entryPerimeter=0;endArrow=none;endFill=0;" edge="1" parent="1" source="uLbKW4DAnLPxpBr8rwX6-55" target="uLbKW4DAnLPxpBr8rwX6-84">
          <mxGeometry relative="1" as="geometry" />
        </mxCell>
        <mxCell id="uLbKW4DAnLPxpBr8rwX6-55" value="De Marca" style="whiteSpace=wrap;html=1;align=center;" vertex="1" parent="1">
          <mxGeometry x="350" y="570" width="100" height="40" as="geometry" />
        </mxCell>
        <mxCell id="uLbKW4DAnLPxpBr8rwX6-86" style="edgeStyle=orthogonalEdgeStyle;rounded=0;orthogonalLoop=1;jettySize=auto;html=1;exitX=0;exitY=0;exitDx=0;exitDy=0;entryX=-0.017;entryY=0.906;entryDx=0;entryDy=0;entryPerimeter=0;endArrow=none;endFill=0;" edge="1" parent="1" source="uLbKW4DAnLPxpBr8rwX6-56" target="uLbKW4DAnLPxpBr8rwX6-84">
          <mxGeometry relative="1" as="geometry">
            <Array as="points">
              <mxPoint x="505" y="573" />
            </Array>
          </mxGeometry>
        </mxCell>
        <mxCell id="uLbKW4DAnLPxpBr8rwX6-56" value="Genérico" style="whiteSpace=wrap;html=1;align=center;" vertex="1" parent="1">
          <mxGeometry x="545" y="573" width="100" height="40" as="geometry" />
        </mxCell>
        <mxCell id="uLbKW4DAnLPxpBr8rwX6-109" value="1" style="edgeStyle=orthogonalEdgeStyle;rounded=0;orthogonalLoop=1;jettySize=auto;html=1;exitX=0.5;exitY=0;exitDx=0;exitDy=0;entryX=0.5;entryY=1;entryDx=0;entryDy=0;fontSize=9;endArrow=none;endFill=0;" edge="1" parent="1" source="uLbKW4DAnLPxpBr8rwX6-57" target="uLbKW4DAnLPxpBr8rwX6-3">
          <mxGeometry x="0.3333" y="-10" relative="1" as="geometry">
            <mxPoint as="offset" />
          </mxGeometry>
        </mxCell>
        <mxCell id="uLbKW4DAnLPxpBr8rwX6-110" value="N" style="edgeStyle=orthogonalEdgeStyle;rounded=0;orthogonalLoop=1;jettySize=auto;html=1;exitX=0.5;exitY=1;exitDx=0;exitDy=0;fontSize=9;endArrow=none;endFill=0;" edge="1" parent="1" source="uLbKW4DAnLPxpBr8rwX6-57" target="uLbKW4DAnLPxpBr8rwX6-53">
          <mxGeometry x="0.7352" y="7" relative="1" as="geometry">
            <mxPoint as="offset" />
          </mxGeometry>
        </mxCell>
        <mxCell id="uLbKW4DAnLPxpBr8rwX6-57" value="Escolha" style="shape=rhombus;perimeter=rhombusPerimeter;whiteSpace=wrap;html=1;align=center;" vertex="1" parent="1">
          <mxGeometry x="415" y="387" width="90" height="50" as="geometry" />
        </mxCell>
        <mxCell id="uLbKW4DAnLPxpBr8rwX6-106" style="edgeStyle=orthogonalEdgeStyle;rounded=0;orthogonalLoop=1;jettySize=auto;html=1;entryX=1;entryY=1;entryDx=0;entryDy=0;fontSize=11;endArrow=none;endFill=0;" edge="1" parent="1" source="uLbKW4DAnLPxpBr8rwX6-59" target="uLbKW4DAnLPxpBr8rwX6-56">
          <mxGeometry relative="1" as="geometry">
            <Array as="points">
              <mxPoint x="650" y="619" />
              <mxPoint x="645" y="619" />
            </Array>
          </mxGeometry>
        </mxCell>
        <mxCell id="uLbKW4DAnLPxpBr8rwX6-59" value="&lt;span style=&quot;font-size: 8px&quot;&gt;Nome Laboratório&amp;nbsp;&lt;br&gt;&lt;/span&gt;" style="ellipse;whiteSpace=wrap;html=1;align=left;spacingLeft=25;fontStyle=4" vertex="1" parent="1">
          <mxGeometry x="670" y="610" width="25" height="17" as="geometry" />
        </mxCell>
        <mxCell id="uLbKW4DAnLPxpBr8rwX6-107" style="edgeStyle=orthogonalEdgeStyle;rounded=0;orthogonalLoop=1;jettySize=auto;html=1;entryX=1;entryY=0;entryDx=0;entryDy=0;fontSize=11;endArrow=none;endFill=0;" edge="1" parent="1" source="uLbKW4DAnLPxpBr8rwX6-60" target="uLbKW4DAnLPxpBr8rwX6-56">
          <mxGeometry relative="1" as="geometry" />
        </mxCell>
        <mxCell id="uLbKW4DAnLPxpBr8rwX6-60" value="&lt;span style=&quot;font-size: 8px&quot;&gt;Data de Validade&lt;br&gt;&lt;/span&gt;" style="ellipse;whiteSpace=wrap;html=1;align=left;spacingLeft=25;fontStyle=4" vertex="1" parent="1">
          <mxGeometry x="670" y="533" width="25" height="17" as="geometry" />
        </mxCell>
        <mxCell id="uLbKW4DAnLPxpBr8rwX6-108" style="edgeStyle=orthogonalEdgeStyle;rounded=0;orthogonalLoop=1;jettySize=auto;html=1;fontSize=11;endArrow=none;endFill=0;" edge="1" parent="1" source="uLbKW4DAnLPxpBr8rwX6-61" target="uLbKW4DAnLPxpBr8rwX6-56">
          <mxGeometry relative="1" as="geometry" />
        </mxCell>
        <mxCell id="uLbKW4DAnLPxpBr8rwX6-61" value="&lt;span style=&quot;font-size: 8px&quot;&gt;Princípio Ativo&lt;br&gt;&lt;/span&gt;" style="ellipse;whiteSpace=wrap;html=1;align=left;spacingLeft=25;fontStyle=4" vertex="1" parent="1">
          <mxGeometry x="720" y="584.5" width="25" height="17" as="geometry" />
        </mxCell>
        <mxCell id="uLbKW4DAnLPxpBr8rwX6-102" style="edgeStyle=orthogonalEdgeStyle;rounded=0;orthogonalLoop=1;jettySize=auto;html=1;entryX=0;entryY=1;entryDx=0;entryDy=0;fontSize=11;endArrow=none;endFill=0;" edge="1" parent="1" source="uLbKW4DAnLPxpBr8rwX6-62" target="uLbKW4DAnLPxpBr8rwX6-55">
          <mxGeometry relative="1" as="geometry">
            <Array as="points">
              <mxPoint x="313" y="610" />
            </Array>
          </mxGeometry>
        </mxCell>
        <mxCell id="uLbKW4DAnLPxpBr8rwX6-62" value="&lt;span style=&quot;font-size: 8px&quot;&gt;Nome Medicamento&amp;nbsp;&lt;br&gt;&lt;/span&gt;" style="ellipse;whiteSpace=wrap;html=1;align=left;spacingLeft=25;fontStyle=4" vertex="1" parent="1">
          <mxGeometry x="300" y="627" width="25" height="17" as="geometry" />
        </mxCell>
        <mxCell id="uLbKW4DAnLPxpBr8rwX6-103" style="edgeStyle=orthogonalEdgeStyle;rounded=0;orthogonalLoop=1;jettySize=auto;html=1;entryX=-0.027;entryY=0.792;entryDx=0;entryDy=0;entryPerimeter=0;fontSize=11;endArrow=none;endFill=0;" edge="1" parent="1" source="uLbKW4DAnLPxpBr8rwX6-63" target="uLbKW4DAnLPxpBr8rwX6-55">
          <mxGeometry relative="1" as="geometry">
            <Array as="points">
              <mxPoint x="288" y="602" />
            </Array>
          </mxGeometry>
        </mxCell>
        <mxCell id="uLbKW4DAnLPxpBr8rwX6-63" value="&lt;span style=&quot;font-size: 8px&quot;&gt;Cor Tarja&lt;br&gt;&lt;/span&gt;" style="ellipse;whiteSpace=wrap;html=1;align=left;spacingLeft=25;" vertex="1" parent="1">
          <mxGeometry x="275" y="570" width="25" height="20" as="geometry" />
        </mxCell>
        <mxCell id="uLbKW4DAnLPxpBr8rwX6-104" style="edgeStyle=orthogonalEdgeStyle;rounded=0;orthogonalLoop=1;jettySize=auto;html=1;entryX=0.377;entryY=1;entryDx=0;entryDy=0;entryPerimeter=0;fontSize=11;endArrow=none;endFill=0;" edge="1" parent="1" source="uLbKW4DAnLPxpBr8rwX6-64" target="uLbKW4DAnLPxpBr8rwX6-55">
          <mxGeometry relative="1" as="geometry" />
        </mxCell>
        <mxCell id="uLbKW4DAnLPxpBr8rwX6-64" value="&lt;span style=&quot;font-size: 8px&quot;&gt;Nome Laboratório&amp;nbsp;&lt;br&gt;&lt;/span&gt;" style="ellipse;whiteSpace=wrap;html=1;align=left;spacingLeft=25;fontStyle=4" vertex="1" parent="1">
          <mxGeometry x="375.5" y="653" width="25" height="17" as="geometry" />
        </mxCell>
        <mxCell id="uLbKW4DAnLPxpBr8rwX6-105" style="edgeStyle=orthogonalEdgeStyle;rounded=0;orthogonalLoop=1;jettySize=auto;html=1;entryX=1;entryY=1;entryDx=0;entryDy=0;fontSize=11;endArrow=none;endFill=0;" edge="1" parent="1" source="uLbKW4DAnLPxpBr8rwX6-65" target="uLbKW4DAnLPxpBr8rwX6-55">
          <mxGeometry relative="1" as="geometry" />
        </mxCell>
        <mxCell id="uLbKW4DAnLPxpBr8rwX6-65" value="&lt;span style=&quot;font-size: 8px&quot;&gt;Data de Validade&lt;br&gt;&lt;/span&gt;" style="ellipse;whiteSpace=wrap;html=1;align=left;spacingLeft=25;fontStyle=4" vertex="1" parent="1">
          <mxGeometry x="438" y="636" width="25" height="17" as="geometry" />
        </mxCell>
        <mxCell id="uLbKW4DAnLPxpBr8rwX6-88" style="edgeStyle=orthogonalEdgeStyle;rounded=0;orthogonalLoop=1;jettySize=auto;html=1;endArrow=none;endFill=0;" edge="1" parent="1" source="uLbKW4DAnLPxpBr8rwX6-84" target="uLbKW4DAnLPxpBr8rwX6-53">
          <mxGeometry relative="1" as="geometry" />
        </mxCell>
        <mxCell id="uLbKW4DAnLPxpBr8rwX6-84" value="" style="triangle;whiteSpace=wrap;html=1;align=left;rotation=0;direction=north;" vertex="1" parent="1">
          <mxGeometry x="477.5" y="540" width="30" height="20" as="geometry" />
        </mxCell>
        <mxCell id="uLbKW4DAnLPxpBr8rwX6-94" value="" style="edgeStyle=orthogonalEdgeStyle;rounded=0;orthogonalLoop=1;jettySize=auto;html=1;fontSize=11;endArrow=none;endFill=0;" edge="1" parent="1" source="uLbKW4DAnLPxpBr8rwX6-90" target="uLbKW4DAnLPxpBr8rwX6-92">
          <mxGeometry relative="1" as="geometry" />
        </mxCell>
        <mxCell id="uLbKW4DAnLPxpBr8rwX6-90" value="Sistema" style="shape=ext;margin=3;double=1;whiteSpace=wrap;html=1;align=center;" vertex="1" parent="1">
          <mxGeometry x="155" y="387" width="100" height="40" as="geometry" />
        </mxCell>
        <mxCell id="uLbKW4DAnLPxpBr8rwX6-95" style="edgeStyle=orthogonalEdgeStyle;rounded=0;orthogonalLoop=1;jettySize=auto;html=1;exitX=1;exitY=0.5;exitDx=0;exitDy=0;entryX=0;entryY=0.5;entryDx=0;entryDy=0;fontSize=11;endArrow=none;endFill=0;" edge="1" parent="1" source="uLbKW4DAnLPxpBr8rwX6-91" target="uLbKW4DAnLPxpBr8rwX6-53">
          <mxGeometry relative="1" as="geometry" />
        </mxCell>
        <mxCell id="uLbKW4DAnLPxpBr8rwX6-96" style="edgeStyle=orthogonalEdgeStyle;rounded=0;orthogonalLoop=1;jettySize=auto;html=1;exitX=0.5;exitY=0;exitDx=0;exitDy=0;entryX=0.5;entryY=1;entryDx=0;entryDy=0;fontSize=11;endArrow=none;endFill=0;" edge="1" parent="1" source="uLbKW4DAnLPxpBr8rwX6-91" target="uLbKW4DAnLPxpBr8rwX6-90">
          <mxGeometry relative="1" as="geometry" />
        </mxCell>
        <mxCell id="uLbKW4DAnLPxpBr8rwX6-91" value="Observar" style="shape=rhombus;perimeter=rhombusPerimeter;whiteSpace=wrap;html=1;align=center;" vertex="1" parent="1">
          <mxGeometry x="160" y="475" width="90" height="50" as="geometry" />
        </mxCell>
        <mxCell id="uLbKW4DAnLPxpBr8rwX6-93" value="" style="edgeStyle=orthogonalEdgeStyle;rounded=0;orthogonalLoop=1;jettySize=auto;html=1;endArrow=none;endFill=0;" edge="1" parent="1" source="uLbKW4DAnLPxpBr8rwX6-92" target="uLbKW4DAnLPxpBr8rwX6-1">
          <mxGeometry relative="1" as="geometry" />
        </mxCell>
        <mxCell id="uLbKW4DAnLPxpBr8rwX6-92" value="Criado Por" style="shape=rhombus;double=1;perimeter=rhombusPerimeter;whiteSpace=wrap;html=1;align=center;" vertex="1" parent="1">
          <mxGeometry x="160" y="254.5" width="90" height="50" as="geometry" />
        </mxCell>
      </root>
    </mxGraphModel>
  </diagram>
</mxfile>
